<?xml version="1.0" standalone="no"?>
<!DOCTYPE svg PUBLIC "-//W3C//DTD SVG 20010904//EN"
 "http://www.w3.org/TR/2001/REC-SVG-20010904/DTD/svg10.dtd">
<svg version="1.0" xmlns="http://www.w3.org/2000/svg"
 width="514.000000pt" height="360.000000pt" viewBox="0 0 514.000000 360.000000"
 preserveAspectRatio="xMidYMid meet">

<g transform="translate(0.000000,360.000000) scale(0.100000,-0.100000)"
fill="#000000" stroke="none">
<path d="M0 1800 l0 -1800 2570 0 2570 0 0 1800 0 1800 -2570 0 -2570 0 0
-1800z m2569 759 c11 -17 70 -158 132 -313 62 -154 114 -283 115 -285 2 -1 31
6 66 18 208 68 424 75 633 19 62 -17 75 -23 60 -30 -16 -7 -15 -8 8 -5 15 3
27 0 27 -6 0 -5 -14 -7 -32 -3 -18 3 -103 9 -188 12 -299 12 -472 -43 -895
-286 -318 -183 -462 -243 -656 -276 -178 -29 -372 -6 -554 66 -81 32 -164 74
-130 66 11 -3 63 -17 115 -30 276 -72 526 -57 766 46 l79 34 195 486 c108 267
202 493 209 502 19 23 29 20 50 -15z m414 -826 c-35 -9 -63 -21 -63 -28 0 -19
179 -454 213 -519 17 -32 45 -73 62 -90 16 -17 29 -39 27 -48 -2 -11 5 -18 20
-21 13 -2 -70 -5 -184 -6 -179 -1 -208 1 -208 14 0 8 6 15 14 15 43 0 38 24
-60 286 -54 143 -101 263 -105 268 -4 4 -78 -38 -166 -95 -153 -100 -286 -175
-349 -196 -27 -10 -34 -20 -57 -92 -15 -44 -27 -92 -27 -106 0 -41 33 -65 90
-65 36 0 50 -4 50 -14 0 -8 -6 -15 -12 -17 -7 -2 -123 -4 -258 -4 -225 0 -245
1 -248 18 -3 14 4 17 43 17 54 0 104 19 134 51 24 25 81 131 81 149 0 6 -32
10 -77 11 -76 1 -77 2 -33 11 225 49 314 88 547 239 269 175 417 236 573 237
l55 0 -62 -15z"/>
<path d="M2396 1941 c-47 -126 -86 -234 -86 -239 0 -6 67 28 148 75 l149 85
-56 154 c-30 85 -58 154 -62 154 -3 0 -45 -103 -93 -229z"/>
</g>
</svg>
